<svg width="72" height="72" viewBox="0 0 72 72" fill="none" xmlns="http://www.w3.org/2000/svg">
<path d="M8 24.4518V47.5458C8 50.4038 9.524 53.0458 12 54.4738L32 66.0218C34.476 67.4518 37.524 67.4518 40 66.0218L60 54.4738C62.476 53.0438 64 50.4038 64 47.5458V24.4518C64 21.5938 62.476 18.9518 60 17.5238L40 5.97777C37.524 4.54777 34.476 4.54777 32 5.97777L12 17.5238C9.524 18.9538 8 21.5938 8 24.4518Z" fill="url(#paint0_linear_188_8668)"/>
<path d="M30.418 26.5841C30.698 26.8641 30.89 27.2201 30.966 27.6081C31.044 27.9961 31.004 28.4001 30.852 28.7641C30.7 29.1301 30.444 29.4421 30.114 29.6621C29.784 29.8821 29.396 29.9981 29 29.9981H23V33.9981H27C27.53 33.9981 28.04 34.2081 28.414 34.5841C28.788 34.9601 29 35.4681 29 35.9981C29 36.5281 28.79 37.0381 28.414 37.4121C28.038 37.7881 27.53 37.9981 27 37.9981H23V43.9981C23 44.5281 22.79 45.0381 22.414 45.4121C22.038 45.7861 21.53 45.9981 21 45.9981C20.47 45.9981 19.96 45.7881 19.586 45.4121C19.212 45.0361 19 44.5281 19 43.9981V27.9981C19 27.4681 19.21 26.9581 19.586 26.5841C19.962 26.2081 20.47 25.9981 21 25.9981H29C29.262 25.9981 29.524 26.0481 29.766 26.1501C30.01 26.2501 30.23 26.3981 30.416 26.5821L30.418 26.5841ZM54 40C54 40.53 53.79 41.04 53.414 41.414C53.038 41.79 52.53 42 52 42H50V44C50 44.53 49.79 45.04 49.414 45.414C49.038 45.788 48.53 46 48 46C47.47 46 46.96 45.79 46.586 45.414C46.212 45.038 46 44.53 46 44V42H42V44C42 44.53 41.79 45.04 41.414 45.414C41.038 45.788 40.53 46 40 46C39.47 46 38.96 45.79 38.586 45.414C38.212 45.038 38 44.53 38 44V42H36C35.47 42 34.96 41.79 34.586 41.414C34.212 41.038 34 40.53 34 40C34 39.47 34.21 38.96 34.586 38.586C34.962 38.21 35.47 38 36 38H38V34H36C35.47 34 34.96 33.79 34.586 33.414C34.212 33.038 34 32.53 34 32C34 31.47 34.21 30.96 34.586 30.586C34.962 30.21 35.47 30 36 30H38V28C38 27.47 38.21 26.96 38.586 26.586C38.962 26.21 39.47 26 40 26C40.53 26 41.04 26.21 41.414 26.586C41.788 26.962 42 27.47 42 28V30H46V28C46 27.47 46.21 26.96 46.586 26.586C46.962 26.21 47.47 26 48 26C48.53 26 49.04 26.21 49.414 26.586C49.788 26.962 50 27.47 50 28V30H52C52.53 30 53.04 30.21 53.414 30.586C53.788 30.962 54 31.47 54 32C54 32.53 53.79 33.04 53.414 33.414C53.038 33.79 52.53 34 52 34H50V38H52C52.53 38 53.04 38.21 53.414 38.586C53.788 38.962 54 39.47 54 40ZM46 34H42V38H46V34Z" fill="white"/>
<defs>
<linearGradient id="paint0_linear_188_8668" x1="21.442" y1="11.7358" x2="49.942" y2="59.2358" gradientUnits="userSpaceOnUse">
<stop stop-color="#C478E2"/>
<stop offset="1" stop-color="#8C3BAF"/>
</linearGradient>
</defs>
</svg>
