<svg width="72" height="72" viewBox="0 0 72 72" fill="none" xmlns="http://www.w3.org/2000/svg">
<path d="M8 24.4518V47.5458C8 50.4038 9.524 53.0458 12 54.4738L32 66.0218C34.476 67.4518 37.524 67.4518 40 66.0218L60 54.4738C62.476 53.0438 64 50.4038 64 47.5458V24.4518C64 21.5938 62.476 18.9518 60 17.5238L40 5.97777C37.524 4.54777 34.476 4.54777 32 5.97777L12 17.5238C9.524 18.9538 8 21.5938 8 24.4518Z" fill="url(#paint0_linear_188_8699)"/>
<path d="M51.8079 38.4964C51.4999 37.3104 50.836 36.2464 49.908 35.4484C50.54 34.5504 50.912 33.4944 50.984 32.3984C51.056 31.3024 50.8279 30.2084 50.3239 29.2344C49.8159 28.2604 49.0519 27.4424 48.1119 26.8724C47.1759 26.3024 46.0999 26.0004 44.9999 26.0004H40.9999C40.4679 26.0004 39.9599 26.2104 39.5839 26.5864C39.2119 26.9624 38.9999 27.4704 38.9999 28.0004V44.0004C38.9999 44.5304 39.2119 45.0404 39.5839 45.4144C39.9599 45.7884 40.4679 46.0004 40.9999 46.0004H45.9999C47.2239 46.0004 48.4199 45.6244 49.4279 44.9244C50.4319 44.2244 51.2 43.2324 51.624 42.0844C52.052 40.9344 52.1159 39.6824 51.8079 38.4964ZM42.9999 30.0004H44.9999C45.5319 30.0004 46.04 30.2104 46.416 30.5864C46.788 30.9624 46.9999 31.4704 46.9999 32.0004C46.9999 32.5304 46.788 33.0404 46.416 33.4144C46.04 33.7904 45.5319 34.0004 44.9999 34.0004H42.9999V30.0004ZM47.416 41.4144C47.04 41.7904 46.5319 42.0004 45.9999 42.0004H42.9999V38.0004H45.9999C46.5319 38.0004 47.04 38.2104 47.416 38.5864C47.788 38.9624 47.9999 39.4704 47.9999 40.0004C47.9999 40.5304 47.788 41.0404 47.416 41.4144ZM35.82 27.1744C36.04 27.6584 36.06 28.2084 35.872 28.7044L29.872 44.7044C29.728 45.0844 29.472 45.4124 29.14 45.6444C28.804 45.8764 28.4079 46.0004 27.9999 46.0004C27.5919 46.0004 27.1959 45.8764 26.8599 45.6444C26.5279 45.4124 26.2719 45.0844 26.1279 44.7044L20.1279 28.7044C20.0359 28.4584 19.9919 28.1964 19.9999 27.9344C20.0079 27.6724 20.0719 27.4144 20.1799 27.1744C20.3959 26.6904 20.8 26.3144 21.296 26.1284C21.792 25.9424 22.3439 25.9604 22.8239 26.1784C23.3079 26.3964 23.684 26.7984 23.872 27.2964L27.9999 38.3044L32.1279 27.2964C32.3159 26.8004 32.692 26.3984 33.176 26.1784C33.656 25.9604 34.2079 25.9404 34.7039 26.1284C35.1999 26.3144 35.604 26.6904 35.82 27.1744Z" fill="white"/>
<defs>
<linearGradient id="paint0_linear_188_8699" x1="13.5" y1="18.5" x2="40.5" y2="65.5" gradientUnits="userSpaceOnUse">
<stop stop-color="#5899F3"/>
<stop offset="1" stop-color="#2C57C2"/>
</linearGradient>
</defs>
</svg>
